<svg xmlns="http://www.w3.org/2000/svg" viewBox="0 0 64 64" width="200" height="200">
  <!-- Pizza Crust -->
  <circle cx="32" cy="32" r="30" fill="#F4A261" stroke="#E76F51" stroke-width="4"/>

  <!-- Pizza Base (Cheese Layer) -->
  <circle cx="32" cy="32" r="26" fill="#E9C46A"/>

  <!-- Pizza Sauce -->
  <path d="M32 6c7 1 14 3 18 10 5 7-1 16-10 19-8 3-17 3-25-2-5-3-6-9-5-13 2-9 12-15 22-14z" fill="#F94144"/>

  <!-- Pepperoni Toppings -->
  <circle cx="22" cy="18" r="4" fill="#F94144"/>
  <circle cx="40" cy="24" r="4" fill="#F94144"/>
  <circle cx="30" cy="42" r="4" fill="#F94144"/>
  <circle cx="45" cy="38" r="4" fill="#F94144"/>
  <circle cx="18" cy="35" r="4" fill="#F94144"/>

  <!-- Green Pepper Toppings -->
  <path d="M23 28c1 1 0 3-2 4-2 1-4-1-3-3 1-1 3-2 5-1z" fill="#2A9D8F"/>
  <path d="M40 32c1 1 0 3-2 4-2 1-4-1-3-3 1-1 3-2 5-1z" fill="#2A9D8F"/>
  <path d="M29 16c1 1 0 3-2 4-2 1-4-1-3-3 1-1 3-2 5-1z" fill="#2A9D8F"/>

  <!-- Cheese Stretch Lines -->
  <path d="M35 20c1 0 2 1 2 2s-1 2-2 2-2-1-2-2 1-2 2-2z" fill="#F4A261"/>
  <path d="M28 36c1 0 2 1 2 2s-1 2-2 2-2-1-2-2 1-2 2-2z" fill="#F4A261"/>
</svg>
